:SAMPLES-PER-SECOND 30
:FULLY-SPECIFIED
:DEGREES
277
root  6.59543 34.2052 12.4685 -3.61525 -78.2199 11.9488
LeftUpLeg  -9.24618 17.763 0.955745
LeftLeg  10.9649 13.7801 1.74243
LeftFoot  3.54903 -0.0214512 0.788367
LeftToes  -18.4535 1.85109e-006 5.31342e-008
Spine  3.19306 -4.43968 0.367809
Spine1  5.96444 -9.65263 1.43549
RightShoulder  0.004239 4.63426 10.0447
RightArm  -56.3604 -37.4418 63.018
RightForeArm  51.6954 1.04537 0.166214
RightHand  1.2593 -21.7216 -6.18497
LeftShoulder1  0.130492 -4.62545 -10.5009
LeftArm  -13.1393 -6.05289 -63.1435
LeftForeArm  44.551 -21.1947 -3.89721
LeftHand  0.0122046 0.226872 5.61684
HEad  -24.6374 51.9267 -22.8486
RightUpLeg  -12.9772 -7.78422 -10.4364
RightLeg  9.86185 16.0276 1.71809
RightFoot  6.998 -0.0979946 1.9799
RightToes  -41.1972 -0.228117 -0.321785
278
root  6.487 34.1672 12.093 0.169464 -76.3974 8.21022
LeftUpLeg  -9.79337 16.7361 2.11727
LeftLeg  11.2977 13.2308 1.75161
LeftFoot  4.02664 -0.0268684 0.865409
LeftToes  -19.5219 1.85109e-006 5.31342e-008
Spine  3.16415 -4.37371 0.303453
Spine1  5.79698 -9.65006 1.59311
RightShoulder  0.00608578 4.52517 9.88352
RightArm  -57.6015 -37.3542 64.6612
RightForeArm  52.4669 0.226357 0.0214944
RightHand  1.16194 -21.3666 -5.78184
LeftShoulder1  0.159295 -4.39294 -10.8444
LeftArm  -25.366 -4.44363 -59.7272
LeftForeArm  44.4271 -16.236 -2.92211
LeftHand  0.153545 1.86614 9.00321
HEad  -23.0264 50.2502 -20.8507
RightUpLeg  -12.646 -8.06938 -9.27747
RightLeg  10.086 14.4154 1.60532
RightFoot  6.22242 -0.066467 1.60017
RightToes  -40.3132 -0.22099 -0.316885
279
root  6.41625 34.1285 11.7568 2.41566 -75.1174 6.05789
LeftUpLeg  -10.3319 16.042 3.04853
LeftLeg  11.5497 12.8425 1.75804
LeftFoot  4.58935 -0.0360871 0.982529
LeftToes  -21.0737 1.85109e-006 5.31342e-008
Spine  3.02605 -4.15479 0.278785
Spine1  5.53249 -9.20521 1.68663
RightShoulder  0.0104224 4.31347 9.89271
RightArm  -58.4201 -36.4458 65.9216
RightForeArm  51.4674 1.49188 0.244805
RightHand  1.10674 -19.8676 -5.94124
LeftShoulder1  0.156153 -3.89655 -11.0785
LeftArm  -34.0382 -2.27374 -55.9521
LeftForeArm  43.932 -12.8546 -2.2877
LeftHand  0.24654 2.37025 11.4714
HEad  -22.097 48.7735 -19.6726
RightUpLeg  -12.3942 -6.61514 -8.40487
RightLeg  9.88158 11.6329 1.25827
RightFoot  5.76791 -0.0389948 1.22035
RightToes  -39.9615 -0.218176 -0.31519
280
root  6.38999 34.0885 11.4698 4.05096 -74.4852 4.46716
LeftUpLeg  -10.7106 15.6586 3.86763
LeftLeg  11.6994 12.6763 1.76908
LeftFoot  4.92045 -0.0438635 1.06534
LeftToes  -21.6646 1.85109e-006 5.31342e-008
Spine  2.87101 -3.76782 0.305928
Spine1  5.27991 -8.36227 1.7908
RightShoulder  0.0163583 3.87853 10.0141
RightArm  -58.1368 -34.5564 66.7215
RightForeArm  49.4033 3.97538 0.684293
RightHand  1.11152 -17.7345 -6.74326
LeftShoulder1  0.13954 -3.27244 -11.4137
LeftArm  -37.6771 0.329425 -52.071
LeftForeArm  42.5178 -10.8808 -1.92745
LeftHand  0.252751 2.40942 11.5721
HEad  -21.583 47.525 -19.0551
RightUpLeg  -12.332 -5.13622 -7.66822
RightLeg  9.68032 9.60472 1.00712
RightFoot  5.48744 -0.0221563 0.990633
RightToes  -39.7736 -0.216677 -0.31384
281
root  6.38322 34.0511 11.2137 5.25853 -74.2747 3.18471
LeftUpLeg  -10.8123 15.3667 4.63136
LeftLeg  11.677 12.7866 1.77919
LeftFoot  5.3136 -0.0546756 1.19058
LeftToes  -22.5605 1.85109e-006 5.31342e-008
Spine  2.75528 -3.26869 0.395147
Spine1  5.10877 -7.22978 1.91276
RightShoulder  0.0222872 3.33691 10.0932
RightArm  -54.8784 -32.0634 67.1654
RightForeArm  45.2367 7.63706 1.33959
RightHand  1.11217 -16.3829 -7.34179
LeftShoulder1  0.1206 -2.74201 -11.7559
LeftArm  -37.4736 3.40975 -48.6155
LeftForeArm  40.7972 -9.91213 -1.75376
LeftHand  0.243421 2.66587 10.0366
HEad  -21.1519 46.6206 -18.6541
RightUpLeg  -12.6582 -5.16471 -6.88435
RightLeg  10.3445 9.42223 1.09815
RightFoot  4.8441 -0.014919 0.896684
RightToes  -39.158 -0.211792 -0.310316
282
root  6.40118 34.0196 11.0035 5.31441 -74.3283 3.02573
LeftUpLeg  -10.7398 15.2214 5.01256
LeftLeg  11.4765 13.0294 1.76639
LeftFoot  5.71258 -0.0667522 1.33784
LeftToes  -23.0066 1.85109e-006 5.31342e-008
Spine  2.67923 -2.76243 0.408038
Spine1  5.02742 -6.02014 1.77966
RightShoulder  0.0287017 3.08267 10.1605
RightArm  -51.0011 -29.0261 67.2102
RightForeArm  41.1734 11.4161 2.02757
RightHand  1.23504 -15.5937 -8.62792
LeftShoulder1  0.0961268 -1.9192 -11.9663
LeftArm  -35.7747 6.43002 -45.9464
LeftForeArm  40.0706 -9.44696 -1.67059
LeftHand  0.226431 2.93985 8.41689
HEad  -20.6913 46.1086 -18.4327
RightUpLeg  -13.2417 -6.27976 -6.38289
RightLeg  11.5798 10.5359 1.45595
RightFoot  3.90679 -0.0114936 0.850336
RightToes  -37.9687 -0.202463 -0.303362
283
root  6.43159 34.0144 10.822 5.47215 -74.3676 2.71222
LeftUpLeg  -10.5998 15.0327 5.39733
LeftLeg  11.2133 13.2602 1.73576
LeftFoot  6.19918 -0.081575 1.50634
LeftToes  -23.6038 1.85109e-006 5.31342e-008
Spine  2.63855 -2.27104 0.503904
Spine1  5.013 -4.82665 1.74884
RightShoulder  0.0333266 3.0052 10.059
RightArm  -47.059 -25.5718 66.8373
RightForeArm  37.4288 15.0254 2.70196
RightHand  1.36738 -15.3219 -9.76541
LeftShoulder1  0.0698112 -1.01282 -11.8536
LeftArm  -34.3361 9.27739 -44.6957
LeftForeArm  40.6878 -9.08498 -1.60465
LeftHand  0.211849 2.85055 8.10928
HEad  -20.0927 45.6455 -18.238
RightUpLeg  -13.3606 -6.62321 -5.97804
RightLeg  11.8483 10.9327 1.56202
RightFoot  3.66685 -0.0117559 0.851327
RightToes  -37.5915 -0.199535 -0.301117
284
root  6.4787 34.0388 10.6649 5.94215 -74.5422 2.06303
LeftUpLeg  -10.3578 14.9806 5.81853
LeftLeg  10.7662 13.4798 1.6582
LeftFoot  6.74886 -0.0994208 1.68603
LeftToes  -23.7849 1.85109e-006 5.31342e-008
Spine  2.58209 -1.7449 0.708916
Spine1  4.97512 -3.59254 1.92883
RightShoulder  0.0354026 3.18579 9.71228
RightArm  -44.1847 -21.9577 66.2076
RightForeArm  34.6424 18.2504 3.32379
RightHand  1.47847 -15.1418 -10.715
LeftShoulder1  0.0447823 -0.166782 -11.4804
LeftArm  -34.3451 12.0674 -44.928
LeftForeArm  42.059 -8.79329 -1.55053
LeftHand  0.21605 2.72649 8.66781
HEad  -19.0182 45.077 -17.7885
RightUpLeg  -13.0983 -6.39543 -5.57121
RightLeg  11.2014 10.9456 1.43883
RightFoot  4.05651 -0.0176567 0.931597
RightToes  -37.4125 -0.19815 -0.300044
285
root  6.5255 34.0689 10.5312 6.34822 -74.8066 1.50296
LeftUpLeg  -10.024 15.0366 6.16531
LeftLeg  10.122 13.7132 1.53168
LeftFoot  7.39569 -0.121918 1.88624
LeftToes  -24.1668 1.85109e-006 5.31342e-008
Spine  2.47792 -1.21031 0.941932
Spine1  4.85154 -2.39827 2.21801
RightShoulder  0.0362727 3.48256 9.09049
RightArm  -42.0115 -18.7896 65.6549
RightForeArm  32.6057 22.324 4.1434
RightHand  1.56071 -15.2083 -11.2762
LeftShoulder1  0.0240039 0.562446 -11.0454
LeftArm  -35.4407 14.86 -46.1441
LeftForeArm  43.1166 -8.71121 -1.53443
LeftHand  0.219642 2.71806 8.8457
HEad  -17.3396 44.42 -17.1391
RightUpLeg  -12.7909 -6.22073 -5.19919
RightLeg  10.4066 11.034 1.29596
RightFoot  4.50989 -0.0245325 1.02043
RightToes  -37.0204 -0.195925 -0.298418
